<svg version="1.2" xmlns="http://www.w3.org/2000/svg" viewBox="0 0 1024 1024" width="1024" height="1024">
	<style>
		.s0 { fill: #c62828 } 
		.s1 { fill: #ffffff } 
		.s2 { fill: #000000 } 
		.s3 { fill: #2d2d2d } 
	</style>
	<g>
		<path id="energie
" class="s0" aria-label="energie"  d="m186.4 518.4c0.2-2 0.4-5.6 0.4-6.8 0-17.5-11.2-28.8-28.4-28.8-19.1 0-31 13.4-31 33.7 0 21.5 13.3 34.8 33.4 34.8 8.1 0 16.6-2.2 21.8-6v-9c-5 4.1-13 7-21 7-15.4 0-24.5-10.4-24.1-24.9zm-28.2-27.6c11.7 0 19.6 7.4 19.3 20.8h-39.9c0.3-12.6 8.4-20.8 20.6-20.8zm84.6-8c-10.4 0-19.4 4.8-24.6 13.3v-12h-8.9v65.9h9.8v-43.9c3.7-9.3 11.1-15.1 20.8-15.1 9.3 0 15.2 5.2 15.2 19.1v39.9h9.7v-41c0-17.6-8.2-26.2-22-26.2zm103.6 35.6c0.3-2 0.4-5.6 0.4-6.8 0-17.5-11.2-28.8-28.4-28.8-19 0-30.9 13.4-30.9 33.7 0 21.5 13.3 34.8 33.3 34.8 8.2 0 16.7-2.2 21.9-6v-9c-5.1 4.1-13.1 7-21.1 7-15.3 0-24.4-10.4-24-24.9zm-28.3-27.6c11.8 0 19.6 7.4 19.4 20.8h-39.9c0.3-12.6 8.4-20.8 20.5-20.8zm103 0.6c2.8 0 6 0.4 8.7 1.2v-8.4c-1.6-0.6-5.2-1-8.7-1-11.6 0-21.2 6-25.4 14.5v-13.6h-29.4v8h20.6v49.9h-20.6v8h60.8v-8h-30.6v-34.2c3.4-10 12.6-16.4 24.6-16.4zm70.2 50.7h-12.2v-13.7c13.7-1.5 22.3-10.1 22.3-22.7 0-10.9-6.2-18.9-16.2-21.7l20.3-9.9-4.4-7.7-24.2 16.4h-0.5c-17.3 0-27.6 8.8-27.6 22.9 0 12.4 8 21.1 21.9 22.6v13.8h-8.4c-11.4 0-18.8 5.5-18.8 16.7 0 10.9 6.8 16.5 19 16.5h28.6c12.8 0 18.8-6.2 18.8-16.5 0-10-6.1-16.7-18.6-16.7zm-33-35.9v-1c0-9.5 6-15.4 16.8-15.4 10 0 16.8 5.4 16.8 15.4v1c0 9.5-6.2 15.3-16.8 15.3-10.2 0-16.8-5.4-16.8-15.3zm31.2 61.4h-25.8c-6.5 0-10.2-2.7-10.2-9.1 0-6 3.3-9 10.2-9h25.8c6.8 0 10.4 2.9 10.4 9 0 6.3-3.6 9.1-10.4 9.1zm67.6-93.1c5.2 0 8.6-2.9 8.6-8.3 0-4.8-3-8.1-8.6-8.1-5.4 0-8.8 2.8-8.8 8.1 0 5 3 8.3 8.8 8.3zm-31.4 75.5h63.3v-8h-24.6v-57.9h-32v8h22.4v49.9h-29.1zm140.7-31.6c0.3-2 0.4-5.6 0.4-6.8 0-17.5-11.2-28.8-28.4-28.8-19.1 0-30.9 13.4-30.9 33.7 0 21.5 13.3 34.8 33.3 34.8 8.1 0 16.7-2.2 21.9-6v-9c-5.1 4.1-13.1 7-21.1 7-15.3 0-24.4-10.4-24-24.9zm-28.3-27.6c11.8 0 19.6 7.4 19.4 20.8h-39.9c0.2-12.6 8.4-20.8 20.5-20.8z"/>
		<path id="´
" class="s0" aria-label="´"  d="m158 482.4l16.1-11.5 1.5 5.7-16.5 10.1z"/>
		<path id="Layer 3" fill-rule="evenodd" class="s1" d="m531.55 532.55l-99.91 47.46-2.9-6.09 99.92-47.46z"/>
		<path id="Shape 7" fill-rule="evenodd" class="s2" d="m500.36 555.6l-87.98-0.38z"/>
		<path id="studio
" class="s2" aria-label="studio"  d="m706.9 550.7c9 0 14.5-4.3 14.5-10.9 0-4.6-2.8-8.1-9.2-9.6l-7.6-1.7c-2.6-0.6-6-1.6-6-5.5 0-3.7 3-5.7 8.6-5.7 4.8 0 9.7 1.6 13 4.2v-4.8c-3.1-2.4-8.3-3.8-13.1-3.8-8.2 0-13.8 4-13.8 10.4 0 4.5 2.7 8.1 9.7 9.6l7.2 1.7c3.3 0.8 5.7 2.2 5.7 5.6 0 3.8-3.1 6.2-8.9 6.2-5.4 0-10.5-1.8-13.8-4.7v4.9c2.8 2.4 8.3 4.1 13.7 4.1zm27.1-32.7h12.5v18.2c0 8.7 3.6 14.5 13.6 14.5 3.2 0 6.4-0.8 7.9-2v-4.7c-1.5 1.4-4.4 2.2-6.9 2.2-8.9 0-9.3-7.2-9.3-11.1v-17.1h18.2v-4.3h-18.2v-12.3h-5.2v12.3h-12.6zm72.6-4.4v24.4c-1.9 4.9-6.1 8.1-10.9 8.1-5.3 0-8.2-3.1-8.2-9.9v-22.6h-5.3v23.1c0 8.4 3.5 14 12.1 14 5.3 0 10-2.7 12.8-7.3v6.6h4.8v-36.4zm44.3-15.1v21c-2.8-4.3-7.5-6.6-12.7-6.6-9.5 0-15 7.4-15 18.9 0 12.1 6 18.9 15 18.9 5.5 0 10.5-2.5 13.2-7.4v6.7h4.9v-51.5zm-11.5 47.6c-6.4 0-10.6-5.3-10.6-13.3v-2c0-8.1 4.2-13.4 10.6-13.4 5.1 0 9.4 3.3 11.5 8.4v11.9c-2.1 5.1-6.4 8.4-11.5 8.4zm46.6-37.8c2.9 0 4.8-1.6 4.8-4.6 0-2.6-1.7-4.4-4.8-4.4-2.9 0-4.8 1.5-4.8 4.4 0 2.8 1.7 4.6 4.8 4.6zm-17.2 41.7h34.8v-4.5h-13.5v-31.9h-17.7v4.4h12.4v27.5h-16zm61.3 0.8c10.2 0 16.8-7.4 16.8-18.7 0-11.6-6.6-19.1-16.8-19.1-10.3 0-16.8 7.3-16.8 18.9 0 11.4 6.5 18.9 16.8 18.9zm0-4.4c-6.7 0-11.1-4.7-11.1-13.5v-2c0-8.2 3.9-13.5 11.1-13.5 6.6 0 11.1 4.8 11.1 13.5v2c0 8.2-4 13.5-11.1 13.5z"/>
		<path id="Shape 8" fill-rule="evenodd" class="s2" d="m500.19 555.24l-78.81-0.2z"/>
		<path id="Shape 3" fill-rule="evenodd" class="s3" d="m317.62 557.63l0.89 76.7z"/>
		<path id="Shape 5" fill-rule="evenodd" class="s3" d="m10.01 494.51l0.32 91.96z"/>
	</g>
</svg>